#!OML:ASF H:\GeneralSubjects\Female5\Project 1\Capture day 1\Session 1\Female5.ASF
:FULLY-SPECIFIED
:DEGREES
231
root 2.59684 16.0219 7.04478 -168.976 -28.6183 170.687
lowerback 11.7332 8.0417 -3.90325
upperback -11.1226 7.05714 -11.3532
thorax -18.3162 2.07368 -12.544
lowerneck -11.5975 2.71718 7.68995
upperneck 23.2422 2.22519 -2.81578
head 9.36455 1.15712 -2.05244
rclavicle 8.3092e-014 5.725e-014
rhumerus -11.169 -23.1341 -34.2725
rradius 99.9095
rwrist -20.2062
rhand -49.028 -11.5804
rfingers 7.12502
rthumb -21.656 -40.3893
lclavicle 8.3092e-014 5.725e-014
lhumerus -32.8231 26.8182 24.2723
lradius 110.684
lwrist 5.35596
lhand -50.2492 53.8662
lfingers 7.12502
lthumb -22.8283 -277.465
rfemur -22.4629 5.17526 1.38417
rtibia 26.8896
rfoot -32.4781 -26.0351
rtoes 16.8845
lfemur -1.3432 -6.05342 -36.9508
ltibia 3.72681
lfoot -27.3732 -12.3882
ltoes -29.4678
232
root 2.54121 15.9702 7.08881 -169.048 -27.2633 170.75
lowerback 12.0674 8.52669 -2.19466
upperback -11.079 8.02231 -11.8492
thorax -17.9612 2.2704 -14.3918
lowerneck -12.0865 2.49675 6.6675
upperneck 23.1239 2.1349 -2.80448
head 9.38937 1.03589 -1.88183
rclavicle 5.24792e-014 -1.20861e-013
rhumerus -9.79499 -21.9672 -34.8443
rradius 100.251
rwrist -20.4948
rhand -48.5474 -11.4915
rfingers 7.12502
rthumb -21.1943 -40.3529
lclavicle 5.24792e-014 -1.20861e-013
lhumerus -35.8952 28.9879 21.0692
lradius 109.36
lwrist 5.06161
lhand -50.8022 54.8722
lfingers 7.12502
lthumb -23.3589 -276.525
rfemur -22.6087 5.09505 2.26474
rtibia 25.6251
rfoot -38.2077 -26.3659
rtoes 22.75
lfemur -2.41305 -5.66228 -37.2118
ltibia 5.61052
lfoot -27.1323 -12.3037
ltoes -28.522
233
root 2.49111 15.9347 7.11892 -168.83 -26.1864 170.876
lowerback 11.8955 8.88199 -0.892429
upperback -11.0477 8.83517 -12.057
thorax -17.3654 2.53232 -15.5226
lowerneck -12.6776 2.48178 5.72935
upperneck 23.1775 2.41716 -3.2253
head 9.51984 1.04482 -1.83277
rclavicle 6.04305e-014 -1.20861e-013
rhumerus -8.51277 -20.5112 -34.8807
rradius 100.622
rwrist -20.8465
rhand -48.0551 -11.3211
rfingers 7.12502
rthumb -20.7214 -40.2348
lclavicle 6.04305e-014 -1.20861e-013
lhumerus -40.6364 28.6014 17.5296
lradius 109.287
lwrist 6.4937
lhand -51.9382 59.0168
lfingers 7.12502
lthumb -24.4483 -272.523
rfemur -23.0376 5.31689 2.97626
rtibia 24.557
rfoot -42.9373 -26.6275
rtoes 27.086
lfemur -3.86336 -5.64964 -37.3329
ltibia 7.62184
lfoot -26.9704 -12.2372
ltoes -28.01
234
root 2.45266 15.9109 7.13661 -168.766 -25.4649 171.508
lowerback 11.4828 9.09182 0.421329
upperback -11.0533 9.56219 -11.88
thorax -16.6977 2.83547 -16.1159
lowerneck -13.0555 2.52519 4.97031
upperneck 23.2738 2.8283 -3.9751
head 9.64026 1.08399 -1.91509
rclavicle -3.85642e-014 7.15625e-014
rhumerus -7.45424 -18.9045 -34.6761
rradius 100.953
rwrist -20.6242
rhand -47.7821 -11.1361
rfingers 7.12502
rthumb -20.4591 -40.0782
lclavicle -3.85642e-014 7.15625e-014
lhumerus -43.3991 29.8215 15.4851
lradius 108.655
lwrist 7.19637
lhand -51.1983 63.3583
lfingers 7.12502
lthumb -23.7388 -451.912
rfemur -23.2854 6.0373 3.9873
rtibia 23.3869
rfoot -45.8252 -27.1784
rtoes 29.4977
lfemur -5.19048 -5.96267 -36.8421
ltibia 9.22069
lfoot -27.0776 -11.9209
ltoes -27.3934
235
root 2.42938 15.8902 7.14434 -168.83 -25.0662 172.082
lowerback 11.2004 9.20894 1.23298
upperback -11.0285 10.0613 -11.5188
thorax -16.2484 3.09657 -16.1646
lowerneck -13.0348 2.5527 4.46497
upperneck 22.9829 3.18125 -4.76252
head 9.55369 1.12002 -2.05744
rclavicle 5.84427e-014 2.8625e-014
rhumerus -6.92233 -17.313 -34.265
rradius 101.178
rwrist -19.7364
rhand -47.5534 -10.8857
rfingers 7.12502
rthumb -20.2393 -39.8513
lclavicle 5.84427e-014 2.8625e-014
lhumerus -45.2248 30.3729 14.1389
lradius 108.234
lwrist 8.4676
lhand -50.6506 65.5022
lfingers 7.12502
lthumb -23.2134 -454.123
rfemur -23.2107 7.0223 4.6665
rtibia 22.4127
rfoot -46.6143 -27.6407
rtoes 30.2739
lfemur -6.06071 -6.33256 -36.3486
ltibia 10.3406
lfoot -27.3615 -11.537
ltoes -27.1818
236
root 2.41782 15.8669 7.13923 -168.717 -24.9104 171.943
lowerback 11.0074 9.26401 0.905132
upperback -10.7807 10.2215 -10.984
thorax -16.2116 3.20347 -15.8129
lowerneck -13.0906 2.69717 4.23976
upperneck 22.9656 3.55517 -5.27688
head 9.583 1.21332 -2.15295
rclavicle -4.8901e-014 -1.90833e-014
rhumerus -7.24078 -15.6224 -33.6437
rradius 101.473
rwrist -18.454
rhand -47.622 -11.0685
rfingers 7.12502
rthumb -20.3051 -40.0271
lclavicle -4.8901e-014 -1.90833e-014
lhumerus -45.3417 31.7543 13.5907
lradius 108.182
lwrist 9.22859
lhand -51.6899 64.6388
lfingers 7.12502
lthumb -24.2102 -453.131
rfemur -23.0868 7.51148 4.37334
rtibia 22.2411
rfoot -45.509 -27.2792
rtoes 29.4722
lfemur -6.41285 -6.56831 -36.588
ltibia 10.9955
lfoot -27.4839 -11.2261
ltoes -27.6419
237
root 2.42688 15.8468 7.12129 -168.456 -25.0972 171.541
lowerback 10.8469 9.19823 0.164243
upperback -10.6765 10.0294 -10.7641
thorax -16.2064 3.23326 -15.0344
lowerneck -12.9373 2.7645 4.34175
upperneck 22.7049 3.71364 -5.63609
head 9.48006 1.26321 -2.27309
rclavicle 4.25399e-014 1.59028e-015
rhumerus -8.50802 -14.1115 -33.1355
rradius 101.992
rwrist -17.2526
rhand -47.8997 -11.7191
rfingers 7.12502
rthumb -20.572 -40.649
lclavicle 4.25399e-014 1.59028e-015
lhumerus -44.2158 32.9384 13.7677
lradius 108.547
lwrist 9.39668
lhand -52.5092 59.4572
lfingers 7.12502
lthumb -24.9956 -632.158
rfemur -23.2628 7.32661 3.70693
rtibia 23.0821
rfoot -43.1337 -26.3328
rtoes 28.1486
lfemur -6.63232 -6.55726 -36.9697
ltibia 11.3956
lfoot -27.0771 -10.9705
ltoes -28.057
238
root 2.45841 15.8363 7.09533 -168.301 -25.7833 171.481
lowerback 10.7698 8.92921 -0.524182
upperback -10.5784 9.60636 -10.3843
thorax -16.3282 3.15528 -14.0777
lowerneck -12.8494 2.83403 4.72499
upperneck 22.4952 3.86258 -6.2276
head 9.41854 1.30558 -2.52343
rclavicle -5.92378e-014 -7.4743e-014
rhumerus -10.636 -12.816 -32.7002
rradius 102.826
rwrist -16.7946
rhand -47.8541 -12.2293
rfingers 7.12502
rthumb -20.5282 -41.164
lclavicle -5.92378e-014 -7.4743e-014
lhumerus -41.4847 34.3254 14.9228
lradius 108.76
lwrist 8.53341
lhand -52.1112 58.6805
lfingers 7.12502
lthumb -24.6141 -632.882
rfemur -23.5827 7.08645 3.28027
rtibia 24.5642
rfoot -39.4362 -26.0626
rtoes 24.6203
lfemur -6.95975 -6.58542 -36.8522
ltibia 11.8872
lfoot -26.4342 -10.7259
ltoes -28.045
239
root 2.50424 15.836 7.06128 -168.492 -27.083 172.008
lowerback 10.8197 8.36914 -0.839818
upperback -10.4277 8.94328 -9.71573
thorax -16.4775 2.9666 -12.951
lowerneck -12.963 3.01099 5.04536
upperneck 22.5073 4.15268 -6.73737
head 9.48125 1.40819 -2.72043
rclavicle -2.90226e-014 -2.8625e-014
rhumerus -13.4651 -11.4841 -32.2113
rradius 103.954
rwrist -17.0014
rhand -47.6595 -12.4194
rfingers 7.12502
rthumb -20.3412 -41.3741
lclavicle -2.90226e-014 -2.8625e-014
lhumerus -38.0189 35.8795 16.8966
lradius 108.735
lwrist 6.82106
lhand -51.1422 57.2448
lfingers 7.12502
lthumb -23.6849 -634.194
rfemur -23.3865 7.61826 3.29909
rtibia 26.0051
rfoot -35.1593 -25.672
rtoes 18.95
lfemur -7.41463 -6.8221 -36.0587
ltibia 12.8434
lfoot -25.8944 -10.6477
ltoes -28.3357
240
root 2.56749 15.8481 7.01332 -168.811 -28.9402 172.832
lowerback 10.777 7.60639 -1.07507
upperback -10.1967 8.07083 -8.893
thorax -16.485 2.71083 -11.6072
lowerneck -13.1852 3.20278 5.30469
upperneck 22.5632 4.44958 -7.12831
head 9.57915 1.51976 -2.86473
rclavicle -4.11484e-014 -5.08889e-014
rhumerus -16.9843 -10.3418 -31.7512
rradius 105.202
rwrist -17.2192
rhand -47.535 -12.0722
rfingers 7.12502
rthumb -20.2215 -41.0397
lclavicle -4.11484e-014 -5.08889e-014
lhumerus -34.8306 35.9335 19.1798
lradius 109.511
lwrist 5.9434
lhand -51.1119 56.7689
lfingers 7.12502
lthumb -23.6559 -634.667
rfemur -22.6115 9.08698 3.47845
rtibia 27.0681
rfoot -31.4598 -24.5945
rtoes 13.4284
lfemur -8.19131 -6.97649 -34.8286
ltibia 14.2954
lfoot -25.1962 -10.8151
ltoes -29.1104
241
root 2.65467 15.8706 6.94988 -169.065 -31.3635 173.909
lowerback 10.6309 6.71678 -1.3668
upperback -10.0681 7.02528 -7.95636
thorax -16.5647 2.38168 -10.0667
lowerneck -13.1286 3.23534 5.57209
upperneck 22.5795 4.52439 -7.53145
head 9.59582 1.53043 -3.04423
rclavicle -9.80008e-014 1.54257e-013
rhumerus -21.3831 -9.32964 -31.1534
rradius 106.395
rwrist -16.9739
rhand -47.7252 -11.4989
rfingers 7.12502
rthumb -20.4044 -40.4469
lclavicle -9.80008e-014 1.54257e-013
lhumerus -29.828 36.4327 22.8438
lradius 109.538
lwrist 4.94879
lhand -50.6669 55.7986
lfingers 7.12502
lthumb -23.2291 -635.582
rfemur -21.6356 11.2358 3.8577
rtibia 27.7628
rfoot -28.139 -23.6102
rtoes 6.8332
lfemur -9.52824 -7.01241 -33.1559
ltibia 16.1177
lfoot -24.0371 -11.2048
ltoes -29.9594
242
root 2.75641 15.8919 6.87144 -169.593 -34.339 175.673
lowerback 10.4754 5.68674 -1.44112
upperback -10.0711 5.8787 -6.72066
thorax -16.7666 2.00309 -8.30034
lowerneck -13.1959 3.41323 5.95546
upperneck 22.826 4.79604 -8.01625
head 9.73919 1.62346 -3.25312
rclavicle -1.18674e-013 -2.54444e-014
rhumerus -26.3456 -8.34506 -30.2527
rradius 107.318
rwrist -16.0725
rhand -48.1288 -11.3487
rfingers 7.12502
rthumb -20.7921 -40.2547
lclavicle -1.18674e-013 -2.54444e-014
lhumerus -24.9861 36.004 26.9259
lradius 109.373
lwrist 4.22528
lhand -49.7535 54.35
lfingers 7.12502
lthumb -22.3525 -636.923
rfemur -20.6137 13.9992 4.91297
rtibia 28.2711
rfoot -25.2959 -22.6677
rtoes -1.0087
lfemur -11.3346 -7.14735 -30.683
ltibia 18.2848
lfoot -22.5413 -11.947
ltoes -31.0308
243
root 2.86196 15.9065 6.77675 -170.501 -37.7098 177.923
lowerback 10.2253 4.50286 -1.51063
upperback -10.0195 4.57557 -5.2032
thorax -16.8109 1.59171 -6.16551
lowerneck -13.255 3.5223 5.98123
upperneck 23.3102 4.97754 -8.18028
head 9.94307 1.66944 -3.30562
rclavicle 3.39922e-014 -1.74931e-014
rhumerus -31.3668 -7.6529 -29.2148
rradius 107.981
rwrist -14.9658
rhand -48.1008 -11.1583
rfingers 7.12502
rthumb -20.7653 -40.0673
lclavicle 3.39922e-014 -1.74931e-014
lhumerus -20.428 35.1765 31.2895
lradius 109.174
lwrist 3.57344
lhand -49.6656 54.0158
lfingers 7.12502
lthumb -22.2681 -637.247
rfemur -19.5118 16.9258 6.4595
rtibia 28.6796
rfoot -22.8322 -21.4994
rtoes -7.46196
lfemur -13.2755 -7.59354 -27.7605
ltibia 20.488
lfoot -20.874 -12.7552
ltoes -31.9288
